<svg width="332" height="273" viewBox="0 0 332 273" fill="none" xmlns="http://www.w3.org/2000/svg">
<g clip-path="url(#clip0_3402_2082)">
<path d="M122.259 84.3193V75.3867C120.269 75.5783 118.662 75.6112 117.101 75.8986C102.934 78.5349 91.3109 90.1092 88.8662 104.911C87.815 111.268 87.9136 139.464 87.9136 147.017H122.097V112.782H97.317C97.3554 105.839 99.2826 99.9233 103.203 94.6645C107.92 88.3353 114.358 85.042 122.259 84.3193Z" fill="#D3D3D3"/>
<path d="M152.725 94.6645C157.439 88.3353 163.88 85.042 171.781 84.3193V75.3867C169.788 75.5783 168.184 75.6112 166.621 75.8986C152.459 78.5349 140.833 90.1092 138.386 104.911C137.334 111.268 137.438 139.464 137.438 147.017H171.619V112.782H146.845C146.883 105.839 148.807 99.9233 152.73 94.6645H152.725Z" fill="#D3D3D3"/>
<path d="M129.847 207.845C116.469 207.845 103.369 205.893 90.9054 202.044C89.0356 201.467 87.0208 201.576 85.2222 202.354C58.6407 213.849 36.2503 221.927 20.9994 225.617C33.2198 192.652 35.9054 176.635 36.3625 169.728C36.4939 167.732 35.8944 165.758 34.6735 164.176C22.735 148.679 16.425 130.685 16.425 112.135C16.425 59.3609 67.305 16.4253 129.847 16.4253C192.389 16.4253 242.872 59.0269 243.263 111.522C246.088 111.295 248.936 111.174 251.807 111.174C254.454 111.174 257.082 111.278 259.689 111.473C259.59 96.4026 256.091 81.7951 249.283 68.0416C242.661 54.666 233.211 42.6783 221.191 32.4098C209.266 22.2206 195.403 14.2298 179.985 8.65885C164.088 2.91275 147.222 0 129.847 0C112.472 0 95.6057 2.91275 79.7115 8.65611C64.2937 14.227 50.4308 22.2179 38.506 32.407C26.4855 42.6756 17.0355 54.666 10.4134 68.0389C3.5038 81.9949 -0.000258088 96.8297 -0.000258088 112.135C-0.000258088 133.277 6.78885 153.743 19.6663 171.529C18.678 178.756 14.9029 196.725 0.571888 233.022C-0.45469 235.62 -0.0878596 238.563 1.54372 240.833C3.09043 242.984 5.57612 244.252 8.20963 244.252C8.35199 244.252 8.49434 244.249 8.63669 244.241C27.7995 243.244 62.3528 230.025 88.9945 218.612C102.14 222.368 115.866 224.271 129.844 224.271C142.609 224.271 155.101 222.696 167.132 219.584C164.835 214.497 163.163 209.258 162.12 203.898C151.887 206.466 141.052 207.845 129.844 207.845H129.847Z" fill="#D3D3D3"/>
<path d="M331.829 190.497C331.829 152.738 296 122.127 251.805 122.127C207.61 122.127 171.781 152.738 171.781 190.497C171.781 228.256 207.607 258.867 251.805 258.867C261.359 258.867 270.524 257.436 279.019 254.81C294.176 261.364 319.129 271.353 331.829 272.013C320.832 244.153 318.97 232.121 318.699 228.032C326.999 217.257 331.829 204.36 331.829 190.497ZM246.187 193.982C244.578 203.719 236.929 211.335 227.61 213.068C226.581 213.257 225.524 213.279 224.213 213.405V207.527C229.412 207.051 233.649 204.883 236.751 200.722C239.332 197.262 240.597 193.369 240.625 188.803H224.322V166.278H246.811C246.811 171.247 246.88 189.799 246.187 193.982ZM278.767 193.982C277.157 203.719 269.511 211.335 260.19 213.068C259.163 213.257 258.104 213.279 256.795 213.405V207.527C261.994 207.051 266.229 204.883 269.333 200.722C271.912 197.262 273.179 193.369 273.204 188.803H256.902V166.278H279.391C279.391 171.247 279.457 189.799 278.764 193.982H278.767Z" fill="#D3D3D3"/>
</g>
<defs>
<clipPath id="clip0_3402_2082">
<rect width="331.829" height="272.013" fill="white"/>
</clipPath>
</defs>
</svg>
