<svg width="48" height="48" viewBox="0 0 48 48" fill="none" xmlns="http://www.w3.org/2000/svg">
<path d="M28.0002 20.0004L22.0002 26.0004M40.5762 6.06244C40.766 5.99695 40.9704 5.98617 41.166 6.03134C41.3616 6.0765 41.5406 6.17579 41.6824 6.31786C41.8243 6.45992 41.9233 6.63903 41.9682 6.83471C42.0131 7.03039 42.002 7.23476 41.9362 7.42444L30.0882 41.2844C30.0173 41.4868 29.8872 41.6633 29.7148 41.7908C29.5424 41.9184 29.3357 41.9912 29.1214 41.9999C28.9071 42.0085 28.6952 41.9525 28.5131 41.8392C28.331 41.7259 28.1871 41.5605 28.1002 41.3644L21.6622 26.8804C21.5539 26.6396 21.3611 26.4468 21.1202 26.3384L6.63621 19.8984C6.4408 19.8112 6.27604 19.6674 6.16322 19.4855C6.0504 19.3037 5.9947 19.0922 6.00331 18.8783C6.01192 18.6645 6.08446 18.4582 6.21154 18.286C6.33862 18.1138 6.51442 17.9837 6.71621 17.9124L40.5762 6.06244Z" stroke="white" stroke-width="3" stroke-linecap="round" stroke-linejoin="round"/>
</svg>
