<svg width="36" height="33" viewBox="0 0 36 33" fill="none" xmlns="http://www.w3.org/2000/svg">
<path d="M2.29639 0.735352C3.27645 -0.24437 4.86516 -0.244377 5.84521 0.735352L19.3306 14.2207C19.8228 14.7131 20.0674 15.3596 20.0649 16.0049C20.0677 16.6507 19.8233 17.2982 19.3306 17.791L5.84521 31.2754C4.86519 32.2553 3.27651 32.2551 2.29639 31.2754L0.734863 29.7148C-0.245123 28.7347 -0.245114 27.1452 0.734863 26.165L10.894 16.0049L0.734863 5.8457C-0.244831 4.86568 -0.244754 3.27695 0.734863 2.29688L2.29639 0.735352ZM18.0249 0.734375C19.005 -0.244873 20.5938 -0.245181 21.5737 0.734375L35.0591 14.2197C35.5514 14.7121 35.7958 15.3586 35.7935 16.0039C35.7963 16.6497 35.5517 17.2972 35.0591 17.79L21.5737 31.2744C20.5936 32.2545 19.005 32.2545 18.0249 31.2744L16.4634 29.7139C15.4834 28.7337 15.4833 27.1442 16.4634 26.1641L26.6226 16.0039L16.4634 5.84473C15.4837 4.86466 15.4836 3.27595 16.4634 2.2959L18.0249 0.734375Z" fill="white"/>
</svg>
