<svg width="41" height="36" viewBox="0 0 41 36" fill="none" xmlns="http://www.w3.org/2000/svg">
<path fill-rule="evenodd" clip-rule="evenodd" d="M35.5885 5.70432C41.7264 12.6345 41.7264 23.0928 35.5885 30.023C34.6716 31.0593 33.6803 29.7082 33.137 29.1667C32.7409 28.7705 32.7201 28.1356 33.0903 27.7152C38.0245 22.0875 38.0245 13.6417 33.0903 8.01577C32.2893 7.10232 33.3983 6.30305 34.0418 5.6595C34.476 5.2218 35.1802 5.24413 35.5885 5.70432ZM30.4227 10.9356C30.0248 10.4443 29.2913 10.4063 28.8449 10.8526C28.1771 11.5204 27.1391 12.2557 27.8519 13.1674C30.004 15.9198 30.004 19.8089 27.8519 22.5596C27.1391 23.4713 28.1771 24.2066 28.8449 24.8744C29.2913 25.3207 30.0248 25.2827 30.4227 24.7913C33.6838 20.7587 33.6838 14.9663 30.4227 10.9356ZM11.5014 8.60015L21.5318 0.292554C22.3726 -0.402905 23.6182 0.228544 23.6182 1.27345H23.6199V34.4516C23.6199 35.5121 22.3657 36.1608 21.4834 35.3927L11.5012 27.125H4.96162C2.22819 27.125 0 24.8985 0 22.1634V13.5617C0 10.8265 2.2265 8.60006 4.96162 8.60006L11.5014 8.60015Z" fill="white"/>
</svg>
