<svg width="58" height="18" viewBox="0 0 58 18" fill="none" xmlns="http://www.w3.org/2000/svg">
<path d="M7.36002 16.6205H4.78002V3.68055L1.44002 6.30055L1.95354e-05 4.40055L5.24002 0.300546H7.36002V16.6205ZM23.5424 16.6205H20.6824L17.4824 9.98055H17.4424H13.4824V16.6205H10.9024V0.300546H17.4424C19.189 0.300546 20.569 0.713879 21.5824 1.54055C22.609 2.36721 23.1224 3.56055 23.1224 5.12055C23.1224 6.28055 22.8424 7.24055 22.2824 8.00055C21.7224 8.76055 20.9357 9.30055 19.9224 9.62055L23.5424 16.6205ZM13.4824 2.58055V7.70055H17.2624C18.329 7.70055 19.1424 7.48055 19.7024 7.04055C20.2624 6.60055 20.5424 5.96055 20.5424 5.12055C20.5424 4.29388 20.2624 3.66721 19.7024 3.24055C19.1424 2.80055 18.329 2.58055 17.2624 2.58055H13.4824ZM25.4471 9.62055V7.26055H32.2071V9.62055H25.4471ZM49.0063 16.1405L47.4263 17.7205L45.4663 15.7605C44.2796 16.5339 42.9263 16.9205 41.4063 16.9205C40.1263 16.9205 38.9529 16.6405 37.8863 16.0805C36.8196 15.5205 35.9729 14.7139 35.3463 13.6605C34.7196 12.5939 34.4063 11.3405 34.4063 9.90055V7.02055C34.4063 5.58055 34.7196 4.33388 35.3463 3.28055C35.9729 2.21388 36.8196 1.40055 37.8863 0.840546C38.9529 0.280546 40.1263 0.000545979 41.4063 0.000545979C42.6863 0.000545979 43.8596 0.280546 44.9263 0.840546C45.9929 1.40055 46.8396 2.21388 47.4663 3.28055C48.0929 4.33388 48.4063 5.58055 48.4063 7.02055V9.90055C48.4063 11.5805 47.9663 13.0205 47.0863 14.2205L49.0063 16.1405ZM41.4063 14.5205C42.2463 14.5205 42.9996 14.3339 43.6663 13.9605L41.4463 11.7605L43.0063 10.1605L45.2263 12.3805C45.6263 11.6472 45.8263 10.7739 45.8263 9.76055V7.16055C45.8263 6.14721 45.6263 5.28055 45.2263 4.56055C44.8396 3.84055 44.3063 3.30055 43.6263 2.94055C42.9596 2.58055 42.2196 2.40055 41.4063 2.40055C40.5929 2.40055 39.8463 2.58055 39.1663 2.94055C38.4996 3.30055 37.9663 3.84055 37.5663 4.56055C37.1796 5.28055 36.9863 6.14721 36.9863 7.16055V9.76055C36.9863 10.7739 37.1796 11.6405 37.5663 12.3605C37.9663 13.0805 38.4996 13.6205 39.1663 13.9805C39.8463 14.3405 40.5929 14.5205 41.4063 14.5205ZM57.8288 16.6205H55.2488V3.68055L51.9088 6.30055L50.4688 4.40055L55.7088 0.300546H57.8288V16.6205Z" fill="#1D7FFF"/>
</svg>
