<svg width="32" height="32" viewBox="0 0 32 32" fill="none" xmlns="http://www.w3.org/2000/svg">
<path d="M6.66651 26.666V23.9994H25.3332V26.666H6.66651ZM6.66651 21.9994L4.96651 11.2994C4.92206 11.2994 4.87184 11.3051 4.81584 11.3167C4.75984 11.3282 4.71006 11.3336 4.66651 11.3327C4.11095 11.3327 3.63895 11.138 3.25051 10.7487C2.86206 10.3594 2.6674 9.88735 2.66651 9.33269C2.66562 8.77802 2.86028 8.30602 3.25051 7.91669C3.64073 7.52735 4.11273 7.33269 4.66651 7.33269C5.22028 7.33269 5.69273 7.52735 6.08384 7.91669C6.47495 8.30602 6.66917 8.77802 6.66651 9.33269C6.66651 9.48824 6.64962 9.63269 6.61584 9.76602C6.58206 9.89935 6.5434 10.0216 6.49984 10.1327L10.6665 11.9994L14.8332 6.29935C14.5887 6.12157 14.3887 5.88824 14.2332 5.59935C14.0776 5.31046 13.9998 4.99935 13.9998 4.66602C13.9998 4.11046 14.1945 3.63802 14.5838 3.24869C14.9732 2.85935 15.4452 2.66513 15.9998 2.66602C16.5545 2.66691 17.027 2.86157 17.4172 3.25002C17.8074 3.63846 18.0016 4.11046 17.9998 4.66602C17.9998 4.99935 17.9221 5.31046 17.7665 5.59935C17.611 5.88824 17.411 6.12157 17.1665 6.29935L21.3332 11.9994L25.4998 10.1327C25.4554 10.0216 25.4163 9.89935 25.3825 9.76602C25.3487 9.63269 25.3323 9.48824 25.3332 9.33269C25.3332 8.77713 25.5278 8.30469 25.9172 7.91535C26.3065 7.52602 26.7785 7.3318 27.3332 7.33269C27.8878 7.33357 28.3603 7.52824 28.7505 7.91669C29.1407 8.30513 29.335 8.77713 29.3332 9.33269C29.3314 9.88824 29.1372 10.3607 28.7505 10.75C28.3638 11.1394 27.8914 11.3336 27.3332 11.3327C27.2887 11.3327 27.239 11.3274 27.1838 11.3167C27.1287 11.306 27.0785 11.3002 27.0332 11.2994L25.3332 21.9994H6.66651ZM8.93317 19.3327H23.0665L23.9332 13.766L20.4332 15.2994L15.9998 9.19935L11.5665 15.2994L8.06651 13.766L8.93317 19.3327Z" fill="white"/>
</svg>
