<svg width="36" height="36" viewBox="0 0 36 36" fill="none" xmlns="http://www.w3.org/2000/svg">
<path d="M21.1926 29.0025C21.1926 29.89 20.84 30.7411 20.2125 31.3687C19.5849 31.9962 18.7338 32.3488 17.8463 32.3488C16.9588 32.3488 16.1077 31.9962 15.4801 31.3687C14.8526 30.7411 14.5 29.89 14.5 29.0025C14.5 28.115 14.8526 27.2638 15.4801 26.6363C16.1077 26.0087 16.9588 25.6562 17.8463 25.6562C18.7338 25.6562 19.5849 26.0087 20.2125 26.6363C20.84 27.2638 21.1926 28.115 21.1926 29.0025ZM21.1926 17.8482C21.1926 18.7357 20.84 19.5868 20.2125 20.2144C19.5849 20.8419 18.7338 21.1945 17.8463 21.1945C16.9588 21.1945 16.1077 20.8419 15.4801 20.2144C14.8526 19.5868 14.5 18.7357 14.5 17.8482C14.5 16.9607 14.8526 16.1096 15.4801 15.482C16.1077 14.8545 16.9588 14.5019 17.8463 14.5019C18.7338 14.5019 19.5849 14.8545 20.2125 15.482C20.84 16.1096 21.1926 16.9607 21.1926 17.8482ZM21.1926 6.69394C21.1926 7.58143 20.84 8.43257 20.2125 9.06011C19.5849 9.68766 18.7338 10.0402 17.8463 10.0402C16.9588 10.0402 16.1077 9.68766 15.4801 9.06011C14.8526 8.43257 14.5 7.58143 14.5 6.69394C14.5 5.80645 14.8526 4.95531 15.4801 4.32776C16.1077 3.70021 16.9588 3.34766 17.8463 3.34766C18.7338 3.34766 19.5849 3.70021 20.2125 4.32776C20.84 4.95531 21.1926 5.80645 21.1926 6.69394Z" fill="#989898"/>
</svg>
